<svg xmlns="http://www.w3.org/2000/svg" version="1.1" xmlns:xlink="http://www.w3.org/1999/xlink" xmlns:svgjs="http://svgjs.dev/svgjs" width="1440" height="1080" preserveAspectRatio="none" viewBox="0 0 1440 1080"><g mask="url(&quot;#SvgjsMask1009&quot;)" fill="none"><rect width="1440" height="1080" x="0" y="0" fill="rgba(56, 62, 86, 1)"></rect><path d="M0,670.298C124.814,653.152,176.43,501.19,263.702,410.328C328.762,342.592,386.156,275.479,447.516,204.374C536.412,101.358,686.838,33.405,705.296,-101.406C723.843,-236.868,652.927,-391.134,539.504,-467.483C427.038,-543.188,276.825,-482.186,141.258,-481.081C46.826,-480.311,-43.613,-483.124,-135.65,-461.98C-233.105,-439.591,-334.523,-421.062,-409.244,-354.612C-489.138,-283.562,-535.727,-184.207,-563.958,-81.085C-595.011,32.346,-625.718,156.485,-578.671,264.27C-531.424,372.512,-411.452,421.96,-314.773,489.796C-213.716,560.703,-122.303,687.1,0,670.298" fill="#292e40"></path><path d="M1440 1485.589C1521.848 1494.2269999999999 1615.297 1504.224 1679.7 1452.98 1743.675 1402.077 1745.975 1307.677 1763.859 1227.902 1778.462 1162.766 1788.52 1097.14 1774.086 1031.966 1760.355 969.966 1717.453 922.49 1684.2350000000001 868.369 1643.745 802.4 1627.722 712.2090000000001 1557.647 679.332 1486.859 646.121 1397.631 664.3620000000001 1328.91 701.664 1264.999 736.356 1250.849 819.9580000000001 1201.013 872.9159999999999 1148.035 929.212 1038.51 944.183 1028.547 1020.842 1018.546 1097.795 1121.222 1140.403 1157.3220000000001 1209.095 1190.524 1272.273 1179.728 1355.693 1230.75 1405.599 1285.2350000000001 1458.893 1364.205 1477.59 1440 1485.589" fill="#474e6c"></path></g><defs><mask id="SvgjsMask1009"><rect width="1440" height="1080" fill="#ffffff"></rect></mask></defs></svg>